<?xml version="1.0" encoding="UTF-8" standalone="no"?>
<svg
   xmlns:dc="http://purl.org/dc/elements/1.1/"
   xmlns:cc="http://creativecommons.org/ns#"
   xmlns:rdf="http://www.w3.org/1999/02/22-rdf-syntax-ns#"
   xmlns:svg="http://www.w3.org/2000/svg"
   xmlns="http://www.w3.org/2000/svg"
   version="1.1"
   id="svg5267"
   viewBox="0 0 220.261 138.55336"
   height="39.102837mm"
   width="62.162548mm">
  <g
     transform="translate(-61.298061,-45.942662)"
     id="layer1">
    <g
       transform="matrix(25.897825,0,0,-25.897825,85.667914,122.05637)"
       id="g6640">
      <path
         id="path6642"
         style="fill:#666;fill-opacity:1;fill-rule:nonzero;stroke:none"
         d="M 0,0 C -0.135,0.201 -0.221,0.434 -0.25,0.689 -0.279,0.682 -0.307,0.676 -0.338,0.676 c -0.199,0 -0.361,0.162 -0.361,0.361 0,0.125 0.064,0.234 0.16,0.299 L 0.494,2.055 C 0.711,2.188 0.965,2.27 1.238,2.279 l 2.565,-0.008 1.875,0.299 0,0.03 c 0,0.187 0.15,0.339 0.338,0.339 0.187,0 0.339,-0.152 0.339,-0.339 0,-0.03 -0.003,-0.061 -0.011,-0.088 L 6.518,2.488 C 6.719,2.449 6.871,2.271 6.871,2.059 c 0,-0.014 0,-0.026 -0.002,-0.038 l 0.557,-0.3 C 7.506,1.689 7.564,1.609 7.564,1.518 7.564,1.486 7.559,1.459 7.547,1.432 L 7.408,1.117 C 7.34,1.006 7.223,0.928 7.086,0.912 L 5.807,0.76 4.654,-0.593 5.313,-1.729 5.746,-1.931 c 0.068,-0.047 0.115,-0.127 0.115,-0.216 0,-0.145 -0.117,-0.262 -0.263,-0.262 L 4.764,-2.411 c -0.215,0 -0.401,0.121 -0.494,0.297 l -0.713,1.289 -1.61,-0.002 0.569,-0.875 0.42,-0.192 c 0.078,-0.046 0.128,-0.13 0.128,-0.226 0,-0.145 -0.117,-0.262 -0.261,-0.262 L 1.967,-2.384 c -0.203,0 -0.383,0.11 -0.481,0.274 L 0.703,-0.866 0.156,-1.397 0.111,-1.745 0.295,-1.866 C 0.326,-1.882 0.354,-1.903 0.377,-1.931 0.467,-2.044 0.451,-2.21 0.338,-2.3 0.289,-2.341 0.229,-2.36 0.17,-2.358 L -0.197,-2.36 c -0.102,0.011 -0.194,0.064 -0.252,0.142 l -0.428,0.739 c -0.041,0.078 -0.064,0.166 -0.064,0.259 0,0.143 0.052,0.274 0.142,0.373 L 0,0 Z" />
    </g>
  </g>
</svg>
