<?xml version="1.0" ?><!DOCTYPE svg  PUBLIC '-//W3C//DTD SVG 1.1//EN'  'http://www.w3.org/Graphics/SVG/1.1/DTD/svg11.dtd'><svg enable-background="new 0 0 500 500" height="500px" id="Layer_1" version="1.1" viewBox="0 0 500 500" width="500px" xml:space="preserve" xmlns="http://www.w3.org/2000/svg" xmlns:xlink="http://www.w3.org/1999/xlink"><g><g><path d="M266.018,186.619c4.801-4.789,9.18-9.109,13.186-13.004c-12.829-14.172-22.304-23.63-22.919-24.242     c-3.619-3.602-9.473-3.589-13.075,0.03c-3.602,3.619-3.588,9.473,0.031,13.075C243.39,162.626,253.047,172.267,266.018,186.619z"/><path d="M229.238,310.006c-1.205,1.014-2.41,2.026-3.613,3.033c-3.614,3.023-7.159,5.959-10.624,8.801     c15.382,17.669,27.496,29.993,28.281,30.789c1.809,1.834,4.196,2.754,6.583,2.754c2.345,0,4.691-0.887,6.492-2.663     c3.636-3.586,3.676-9.44,0.091-13.075C256.262,339.455,244.357,327.345,229.238,310.006z"/><path d="M182.129,280.99c1.79-2.201,3.5-4.286,5.096-6.226c2.335-2.84,4.692-5.678,7.061-8.517     c-28.097-39.379-31.966-60.467-25.639-66.793c0.676-0.676,1.39-1.454,2.859-1.454c0.008,0,0.016,0,0.024,0     c4.046,0,12.347,3.314,28.916,17.263c6.573,5.533,13.614,12.276,20.828,19.295c4.171-4.743,8.291-9.394,12.32-13.857     c-24.03-23.374-45.051-40.7-62.008-40.7c-0.026,0-0.051,0-0.077,0c-6.167,0-11.678,2.364-15.938,6.624     c-10.165,10.165-10.716,26.179-1.637,47.485C159.554,247.299,169.035,263.082,182.129,280.99z"/><path d="M321.645,225.358c-3.209,3.264-6.656,6.734-10.366,10.444c-0.927,0.927-1.885,1.875-2.857,2.834     c22.238,31.336,26.087,47.345,26.095,54.64c0.006,4.718-1.515,7.117-2.658,8.261c-0.697,0.697-1.434,1.462-2.943,1.462     c-0.008,0-0.016,0-0.024,0c-4.08,0-12.437-3.3-29.085-17.307c-6.547-5.508-13.551-12.199-20.727-19.174     c-4.457,4.067-9.063,8.224-13.775,12.422C289.948,303.023,311.488,321,328.836,321c0.026,0,0.051,0,0.078,0     c6.199,0,11.739-2.349,16.021-6.633c5.368-5.368,8.085-12.485,8.074-21.069c-0.014-11.834-5.245-26.457-15.993-44.662     C332.754,241.417,327.609,233.621,321.645,225.358z"/><path d="M354.596,162.708c-0.032-0.458-0.09-0.906-0.172-1.346c-0.082-0.44-0.189-0.872-0.319-1.297     c-0.912-2.978-2.975-5.633-5.828-8.486c-0.47-0.47-0.934-0.915-1.395-1.34c-0.041-0.038-0.082-0.075-0.123-0.113     c-0.44-0.402-0.877-0.783-1.313-1.141c-0.031-0.025-0.062-0.052-0.093-0.077c-0.453-0.368-0.905-0.712-1.359-1.03     c-0.034-0.024-0.069-0.047-0.103-0.071c-0.433-0.299-0.867-0.574-1.306-0.825c-0.046-0.026-0.092-0.053-0.138-0.079     c-0.462-0.259-0.929-0.492-1.402-0.694c-0.012-0.005-0.025-0.009-0.037-0.015c-0.467-0.197-0.941-0.363-1.423-0.501     c-0.049-0.014-0.098-0.027-0.147-0.041c-0.471-0.129-0.951-0.23-1.441-0.3c-0.031-0.004-0.062-0.01-0.093-0.015     c-0.513-0.069-1.038-0.105-1.576-0.106c-0.064,0-0.128,0.002-0.192,0.003c-0.234,0.003-0.47,0.012-0.709,0.028     c-0.081,0.005-0.162,0.01-0.244,0.017c-0.306,0.026-0.616,0.059-0.931,0.106c-0.014,0.002-0.028,0.005-0.042,0.007     c-0.303,0.046-0.613,0.105-0.925,0.172c-0.083,0.018-0.167,0.037-0.251,0.056c-0.282,0.064-0.567,0.137-0.857,0.218     c-0.054,0.015-0.107,0.028-0.162,0.044c-0.345,0.1-0.696,0.212-1.053,0.335c-0.067,0.023-0.136,0.049-0.203,0.073     c-0.301,0.107-0.606,0.223-0.916,0.347c-0.083,0.033-0.166,0.066-0.249,0.1c-0.751,0.31-1.529,0.67-2.339,1.082     c-0.089,0.045-0.178,0.092-0.267,0.138c-0.363,0.188-0.731,0.386-1.107,0.595c-0.049,0.027-0.096,0.052-0.145,0.08     c-0.432,0.243-0.872,0.5-1.321,0.771c-0.067,0.04-0.136,0.083-0.203,0.125c-0.388,0.236-0.782,0.483-1.183,0.74     c-0.09,0.058-0.179,0.114-0.27,0.173c-0.936,0.607-1.91,1.271-2.925,1.995c-0.097,0.069-0.194,0.14-0.292,0.21     c-0.461,0.332-0.93,0.675-1.408,1.031c-0.053,0.04-0.105,0.077-0.158,0.117c-0.541,0.405-1.094,0.826-1.657,1.263     c-0.069,0.054-0.141,0.11-0.21,0.164c-0.492,0.383-0.993,0.779-1.502,1.186c-0.109,0.087-0.217,0.173-0.327,0.261     c-1.16,0.933-2.367,1.93-3.623,2.992c-0.126,0.107-0.254,0.216-0.382,0.324c-0.555,0.472-1.12,0.956-1.695,1.453     c-0.083,0.072-0.164,0.141-0.247,0.213c-0.661,0.573-1.334,1.164-2.021,1.771c-0.103,0.091-0.209,0.186-0.312,0.277     c-0.59,0.524-1.191,1.06-1.801,1.609c-0.147,0.132-0.293,0.264-0.442,0.397c-1.421,1.282-2.896,2.633-4.428,4.055     c-0.173,0.161-0.348,0.324-0.523,0.486c-0.652,0.606-1.313,1.225-1.986,1.856c-0.134,0.126-0.265,0.248-0.4,0.375     c-0.796,0.749-1.606,1.516-2.432,2.301c-0.152,0.145-0.308,0.294-0.461,0.44c-0.689,0.656-1.389,1.326-2.099,2.007     c-0.211,0.202-0.421,0.404-0.633,0.608c-1.356,1.304-2.76,2.665-4.194,4.061c-0.379,0.369-0.753,0.731-1.138,1.107     c-0.24,0.235-0.483,0.472-0.726,0.71c-0.742,0.725-1.494,1.463-2.256,2.212c-0.215,0.211-0.426,0.418-0.643,0.631     c-0.942,0.927-1.899,1.872-2.872,2.835c-0.225,0.222-0.455,0.451-0.681,0.675c-0.785,0.777-1.579,1.566-2.385,2.368     c-0.296,0.294-0.592,0.589-0.891,0.886c-0.525,0.523-1.063,1.061-1.597,1.593c-0.47,0.469-0.93,0.927-1.407,1.404     c-0.034,0.034-0.068,0.067-0.102,0.102c-2.725,2.725-5.567,5.628-8.504,8.682c-2.937,3.054-5.968,6.258-9.07,9.584     c-2.327,2.495-4.693,5.059-7.09,7.68c-0.799,0.874-1.601,1.754-2.407,2.64c-1.104,1.215-2.216,2.445-3.331,3.681     c-2.137,2.37-4.289,4.773-6.454,7.208c2.165-2.436,4.317-4.839,6.454-7.208c-2.67-2.66-5.304-5.256-7.905-7.786     c-4.029,4.464-8.149,9.09-12.32,13.834c2.618,2.547,5.26,5.155,7.911,7.796c1.13-1.287,2.259-2.569,3.385-3.843     c-1.126,1.274-2.255,2.557-3.385,3.843c-0.528,0.601-1.056,1.202-1.585,1.806c-4.149,4.739-8.309,9.55-12.436,14.38     c-3.302,3.864-6.582,7.739-9.818,11.597c-1.442,1.72-2.874,3.436-4.297,5.147c-0.173,0.208-0.348,0.417-0.521,0.625     c-1.593,1.918-3.172,3.828-4.734,5.727c-1.562,1.899-3.107,3.788-4.633,5.661c-0.729,0.896-1.454,1.788-2.174,2.677     c-0.786,0.97-1.567,1.937-2.34,2.898c-0.742,0.921-1.477,1.837-2.207,2.748c-1.46,1.823-2.895,3.626-4.303,5.405     c-2.113,2.67-4.165,5.287-6.146,7.841c-4.623,5.959-8.863,11.57-12.595,16.685c-1.066,1.461-2.091,2.882-3.071,4.259     c-0.49,0.688-0.969,1.366-1.437,2.032c-1.403,1.998-2.703,3.894-3.89,5.674c-3.562,5.342-6.109,9.653-7.378,12.617     c-0.076,0.178-0.135,0.356-0.182,0.534c-0.015,0.057-0.024,0.114-0.036,0.171c-0.026,0.121-0.049,0.241-0.063,0.361     c-0.007,0.065-0.011,0.13-0.015,0.194c-0.007,0.111-0.009,0.222-0.005,0.331c0.002,0.064,0.005,0.128,0.01,0.191     c0.01,0.113,0.027,0.224,0.047,0.334c0.01,0.055,0.018,0.11,0.03,0.165c0.033,0.142,0.075,0.281,0.125,0.417     c0.007,0.019,0.011,0.039,0.018,0.057c0.059,0.154,0.129,0.302,0.208,0.446c0.024,0.043,0.052,0.084,0.077,0.126     c0.059,0.099,0.12,0.195,0.188,0.288c0.035,0.048,0.073,0.095,0.111,0.141c0.066,0.082,0.134,0.161,0.207,0.237     c0.042,0.045,0.085,0.089,0.13,0.131c0.078,0.074,0.159,0.144,0.243,0.211c0.044,0.036,0.087,0.073,0.133,0.107     c0.105,0.078,0.216,0.148,0.329,0.214c0.028,0.016,0.054,0.036,0.082,0.052c0.143,0.079,0.292,0.148,0.446,0.208     c0.041,0.016,0.085,0.027,0.127,0.042c0.114,0.039,0.229,0.076,0.347,0.104c0.058,0.014,0.118,0.024,0.177,0.035     c0.106,0.02,0.214,0.035,0.323,0.045c0.064,0.006,0.128,0.01,0.192,0.012c0.083,0.003,0.166-0.001,0.25-0.004     c0.157-0.005,0.316-0.022,0.476-0.049c0.068-0.011,0.136-0.02,0.204-0.035c0.224-0.051,0.45-0.117,0.676-0.213     c0.988-0.423,2.123-0.99,3.395-1.691c0.848-0.467,1.756-0.994,2.721-1.578c0.965-0.584,1.988-1.224,3.064-1.918     c3.229-2.082,6.94-4.648,11.043-7.617c1.368-0.99,2.779-2.025,4.23-3.101c2.177-1.615,4.443-3.324,6.788-5.118     c2.345-1.794,4.769-3.672,7.259-5.625c1.66-1.302,3.351-2.637,5.067-4.002c0.858-0.682,1.723-1.373,2.594-2.07     c1.742-1.394,3.509-2.817,5.297-4.266c1.788-1.449,3.597-2.923,5.424-4.421c0.139-0.114,0.28-0.23,0.419-0.344     c1.69-1.387,3.394-2.79,5.112-4.213c2.789-2.31,5.61-4.664,8.453-7.053c0.222-0.186,0.445-0.375,0.666-0.562     c1.675-1.41,3.356-2.829,5.043-4.26c0.955-0.81,1.912-1.624,2.869-2.44c1.915-1.632,3.834-3.276,5.754-4.927     c1.405-1.209,2.811-2.423,4.216-3.639c1.028-0.89,2.054-1.781,3.08-2.673c1.852-1.611,3.7-3.225,5.542-4.841     c1.014-0.89,2.026-1.78,3.036-2.67c1.394-1.229,2.784-2.457,4.167-3.685c0.564-0.5,1.125-1,1.686-1.5     c2.667,2.664,5.304,5.276,7.903,7.817c4.712-4.198,9.319-8.351,13.775-12.418c-2.62-2.547-5.262-5.154-7.914-7.794     c-1.426,1.3-2.862,2.605-4.312,3.917c1.451-1.312,2.886-2.617,4.312-3.917c0.368-0.336,0.739-0.673,1.105-1.007     c0.893-0.816,1.78-1.629,2.662-2.438c1.763-1.62,3.503-3.227,5.217-4.818c7.891-7.329,15.214-14.326,21.645-20.709     c0.551-0.547,1.101-1.093,1.639-1.631c4.13-4.13,7.962-7.994,11.52-11.622c4.5-4.587,8.558-8.794,12.198-12.656     c1.777-1.886,3.456-3.691,5.039-5.42c2.111-2.305,4.052-4.475,5.832-6.522c1.335-1.535,2.579-3.001,3.737-4.402     c2.315-2.803,4.281-5.35,5.927-7.68c0.549-0.777,1.062-1.53,1.54-2.26c0.239-0.365,0.47-0.725,0.692-1.079     c0.444-0.708,0.855-1.395,1.232-2.061c0.943-1.666,1.681-3.206,2.229-4.643c0.219-0.575,0.408-1.133,0.568-1.677     c0.319-1.087,0.522-2.114,0.616-3.094C354.635,164.103,354.644,163.395,354.596,162.708z M319.571,187.952     c-5.989,5.989-11.933,10.75-16.447,13.404c-3.618,2.128-6.318,2.905-7.37,1.853c-1.114-1.114-0.166-4.084,2.257-8.03     c2.718-4.426,7.296-10.082,13.001-15.787c10.79-10.79,21.453-17.621,23.816-15.258S330.361,177.162,319.571,187.952z"/></g></g></svg>